<?xml version="1.0" encoding="utf-8"?>
<!-- Generator: Adobe Illustrator 19.0.0, SVG Export Plug-In . SVG Version: 6.00 Build 0)  -->
<svg version="1.1" id="Isolation_Mode" xmlns="http://www.w3.org/2000/svg" xmlns:xlink="http://www.w3.org/1999/xlink" x="0px"
	 y="0px" viewBox="3103.4 -414.7 2324.4 1454.4" style="enable-background:new 3103.4 -414.7 2324.4 1454.4;" xml:space="preserve">
<style type="text/css">
	.st0{fill:#FFC20E;}
	.st1{fill:#ED1C24;}
	.st2{fill:#F7941E;}
	.st3{fill:#FFCF01;}
	.st4{fill:#FFFFFF;}
</style>
<g>
	<g>
		<path class="st0" d="M3916.1,147.3h1420c50.6,0,91.7-41,91.7-91.7s-41-91.7-91.7-91.7h-1420c-50.6,0-91.7,41-91.7,91.7
			S3865.4,147.3,3916.1,147.3z"/>
	</g>
	<g>
		<path class="st1" d="M4204.5,697.7h930c50.6,0,91.7-41,91.7-91.7s-41-91.7-91.7-91.7h-930c-50.6,0-91.7,41-91.7,91.7
			S4153.9,697.7,4204.5,697.7z"/>
	</g>
	<g>
		<path class="st2" d="M4071.9,414.7h1166.5c50.6,0,91.7-41,91.7-91.7s-41-91.7-91.7-91.7H4071.9c-50.6,0-91.7,41-91.7,91.7
			S4021.2,414.7,4071.9,414.7z"/>
	</g>
	<g>
		<path class="st3" d="M3900.6,146l1325.5,266.7c49.9,8.5,97.3-25,105.8-74.9s-25-97.3-74.9-105.8L3931.5-34.7
			c-49.9-8.5-97.3,25-105.8,74.9S3850.7,137.4,3900.6,146z"/>
	</g>
	<g>
		<path class="st2" d="M4056.9,413.4l1067.4,282.3c49.9,8.5,97.3-25,105.8-74.9s-25-97.3-74.9-105.8L4087.8,232.7
			c-49.9-8.5-97.3,25-105.8,74.9S4007,404.8,4056.9,413.4z"/>
	</g>
	<g>
		<path class="st4" d="M3195.1-231.3h583.6c50.6,0,91.7-41,91.7-91.7s-41-91.7-91.7-91.7h-583.6c-50.6,0-91.7,41-91.7,91.7
			S3144.5-231.3,3195.1-231.3z"/>
	</g>
	<g>
		<path class="st4" d="M3717.8-262.6l109.5,127.9c33.3,38.1,91.2,42,129.3,8.6c38.1-33.3,42-91.2,8.6-129.3l-109.5-127.9
			c-33.3-38.1-91.2-42-129.3-8.6C3688.4-358.6,3684.5-300.7,3717.8-262.6z"/>
	</g>
	<g>
		<circle class="st4" cx="4422.6" cy="893" r="146.7"/>
	</g>
	<g>
		<circle class="st4" cx="4932.1" cy="893" r="146.7"/>
	</g>
</g>
</svg>
